<svg width="237" height="130" viewBox="0 0 237 130" fill="none" xmlns="http://www.w3.org/2000/svg">
<rect x="75.4238" y="0.930176" width="86.1538" height="51.6923" rx="4.30769" fill="#556FB5"/>
<circle cx="81.1675" cy="6.67387" r="2.15385" fill="#CAD2E8"/>
<circle cx="89.064" cy="6.67387" r="2.15385" fill="#8D9FCD"/>
<circle cx="96.9624" cy="6.67387" r="2.15385" fill="#8D9FCD"/>
<rect x="79.0137" y="16.0068" width="76.1026" height="5.74359" rx="2.87179" fill="#CAD2E8"/>
<rect x="79.0137" y="26.0586" width="45.9487" height="5.74359" rx="2.87179" fill="#CAD2E8"/>
<rect x="129.986" y="36.8276" width="20.1026" height="20.1026" rx="1.82751" fill="#8D9FCD"/>
<circle cx="138.665" cy="44.7898" r="3.19814" stroke="#FAFAFA" stroke-width="0.913753"/>
<line x1="140.815" y1="46.7512" x2="145.384" y2="51.3199" stroke="#FAFAFA" stroke-width="0.913753"/>
<path d="M62.7102 76.2938V87.9302H60.8352L55.3523 80.004H55.2557V87.9302H53.1477V76.2938H55.0341L60.5114 84.2256H60.6136V76.2938H62.7102ZM68.723 88.1006C67.8707 88.1006 67.1321 87.9131 66.5071 87.5381C65.8821 87.1631 65.3973 86.6385 65.0526 85.9643C64.7116 85.29 64.5412 84.5021 64.5412 83.6006C64.5412 82.6991 64.7116 81.9093 65.0526 81.2313C65.3973 80.5533 65.8821 80.0268 66.5071 79.6518C67.1321 79.2768 67.8707 79.0893 68.723 79.0893C69.5753 79.0893 70.3139 79.2768 70.9389 79.6518C71.5639 80.0268 72.0469 80.5533 72.3878 81.2313C72.7325 81.9093 72.9048 82.6991 72.9048 83.6006C72.9048 84.5021 72.7325 85.29 72.3878 85.9643C72.0469 86.6385 71.5639 87.1631 70.9389 87.5381C70.3139 87.9131 69.5753 88.1006 68.723 88.1006ZM68.7344 86.4529C69.1965 86.4529 69.5829 86.326 69.8935 86.0722C70.2041 85.8146 70.4351 85.4699 70.5866 85.0381C70.742 84.6063 70.8196 84.1253 70.8196 83.5949C70.8196 83.0609 70.742 82.5779 70.5866 82.1461C70.4351 81.7105 70.2041 81.3639 69.8935 81.1063C69.5829 80.8487 69.1965 80.7199 68.7344 80.7199C68.2609 80.7199 67.867 80.8487 67.5526 81.1063C67.242 81.3639 67.009 81.7105 66.8537 82.1461C66.7022 82.5779 66.6264 83.0609 66.6264 83.5949C66.6264 84.1253 66.7022 84.6063 66.8537 85.0381C67.009 85.4699 67.242 85.8146 67.5526 86.0722C67.867 86.326 68.2609 86.4529 68.7344 86.4529ZM81.858 88.0836C81.1723 88.0836 80.5587 87.9074 80.017 87.5552C79.4754 87.2029 79.0473 86.6915 78.733 86.0211C78.4186 85.3506 78.2614 84.5362 78.2614 83.5779C78.2614 82.6082 78.4205 81.79 78.7386 81.1234C79.0606 80.4529 79.4943 79.9472 80.0398 79.6063C80.5852 79.2616 81.1932 79.0893 81.8636 79.0893C82.375 79.0893 82.7955 79.1764 83.125 79.3506C83.4545 79.5211 83.7159 79.7275 83.9091 79.9699C84.1023 80.2086 84.2519 80.434 84.358 80.6461H84.4432V76.2938H86.5057V87.9302H84.483V86.5552H84.358C84.2519 86.7673 84.0985 86.9927 83.8977 87.2313C83.697 87.4662 83.4318 87.6669 83.1023 87.8336C82.7727 88.0003 82.358 88.0836 81.858 88.0836ZM82.4318 86.3961C82.8674 86.3961 83.2386 86.2787 83.5455 86.0438C83.8523 85.8052 84.0852 85.4737 84.2443 85.0495C84.4034 84.6253 84.483 84.1309 84.483 83.5665C84.483 83.0021 84.4034 82.5116 84.2443 82.0949C84.089 81.6783 83.858 81.3544 83.5511 81.1234C83.2481 80.8923 82.875 80.7768 82.4318 80.7768C81.9735 80.7768 81.5909 80.8961 81.2841 81.1347C80.9773 81.3734 80.7462 81.7029 80.5909 82.1234C80.4356 82.5438 80.358 83.0249 80.358 83.5665C80.358 84.112 80.4356 84.5987 80.5909 85.0268C80.75 85.451 80.983 85.7862 81.2898 86.0324C81.6004 86.2749 81.9811 86.3961 82.4318 86.3961ZM91.2088 88.1063C90.6558 88.1063 90.1577 88.0078 89.7145 87.8109C89.2751 87.6101 88.9266 87.3146 88.669 86.9245C88.4152 86.5343 88.2884 86.0533 88.2884 85.4813C88.2884 84.9889 88.3793 84.5817 88.5611 84.2597C88.7429 83.9378 88.991 83.6802 89.3054 83.487C89.6198 83.2938 89.974 83.148 90.3679 83.0495C90.7656 82.9472 91.1766 82.8734 91.6009 82.8279C92.1122 82.7749 92.527 82.7275 92.8452 82.6859C93.1634 82.6404 93.3944 82.5722 93.5384 82.4813C93.6861 82.3866 93.7599 82.2408 93.7599 82.0438V82.0097C93.7599 81.5817 93.633 81.2503 93.3793 81.0154C93.1255 80.7806 92.7599 80.6631 92.2827 80.6631C91.7789 80.6631 91.3793 80.773 91.0838 80.9927C90.7921 81.2124 90.5952 81.4718 90.4929 81.7711L88.5724 81.4984C88.724 80.9681 88.974 80.5249 89.3224 80.1688C89.6709 79.809 90.0971 79.54 90.6009 79.362C91.1046 79.1802 91.6615 79.0893 92.2713 79.0893C92.6918 79.0893 93.1103 79.1385 93.527 79.237C93.9437 79.3355 94.3243 79.4984 94.669 79.7256C95.0137 79.9491 95.2902 80.254 95.4986 80.6404C95.7107 81.0268 95.8168 81.5097 95.8168 82.0893V87.9302H93.8395V86.7313H93.7713C93.6463 86.9737 93.4702 87.201 93.2429 87.4131C93.0194 87.6215 92.7372 87.79 92.3963 87.9188C92.0592 88.0438 91.6634 88.1063 91.2088 88.1063ZM91.7429 86.5949C92.1558 86.5949 92.5137 86.5135 92.8168 86.3506C93.1198 86.184 93.3527 85.9643 93.5156 85.6915C93.6823 85.4188 93.7656 85.1215 93.7656 84.7995V83.7711C93.7012 83.8241 93.5914 83.8734 93.4361 83.9188C93.2846 83.9643 93.1141 84.004 92.9247 84.0381C92.7353 84.0722 92.5478 84.1025 92.3622 84.129C92.1766 84.1556 92.0156 84.1783 91.8793 84.1972C91.5724 84.2389 91.2978 84.3071 91.0554 84.4018C90.813 84.4965 90.6217 84.629 90.4815 84.7995C90.3414 84.9662 90.2713 85.1821 90.2713 85.4472C90.2713 85.826 90.4096 86.112 90.6861 86.3052C90.9626 86.4984 91.3149 86.5949 91.7429 86.5949ZM102.243 79.2029V80.7938H97.2259V79.2029H102.243ZM98.4645 77.112H100.521V85.3052C100.521 85.5817 100.563 85.7938 100.646 85.9415C100.733 86.0855 100.847 86.184 100.987 86.237C101.127 86.29 101.283 86.3165 101.453 86.3165C101.582 86.3165 101.699 86.3071 101.805 86.2881C101.915 86.2692 101.999 86.2521 102.055 86.237L102.402 87.8449C102.292 87.8828 102.135 87.9245 101.93 87.9699C101.73 88.0154 101.483 88.0419 101.192 88.0495C100.677 88.0646 100.213 87.987 99.7997 87.8165C99.3868 87.6423 99.0592 87.3734 98.8168 87.0097C98.5781 86.6461 98.4607 86.1915 98.4645 85.6461V77.112ZM106.474 88.1063C105.921 88.1063 105.423 88.0078 104.98 87.8109C104.541 87.6101 104.192 87.3146 103.935 86.9245C103.681 86.5343 103.554 86.0533 103.554 85.4813C103.554 84.9889 103.645 84.5817 103.827 84.2597C104.009 83.9378 104.257 83.6802 104.571 83.487C104.885 83.2938 105.24 83.148 105.634 83.0495C106.031 82.9472 106.442 82.8734 106.866 82.8279C107.378 82.7749 107.793 82.7275 108.111 82.6859C108.429 82.6404 108.66 82.5722 108.804 82.4813C108.952 82.3866 109.026 82.2408 109.026 82.0438V82.0097C109.026 81.5817 108.899 81.2503 108.645 81.0154C108.391 80.7806 108.026 80.6631 107.548 80.6631C107.045 80.6631 106.645 80.773 106.349 80.9927C106.058 81.2124 105.861 81.4718 105.759 81.7711L103.838 81.4984C103.99 80.9681 104.24 80.5249 104.588 80.1688C104.937 79.809 105.363 79.54 105.866 79.362C106.37 79.1802 106.927 79.0893 107.537 79.0893C107.957 79.0893 108.376 79.1385 108.793 79.237C109.209 79.3355 109.59 79.4984 109.935 79.7256C110.279 79.9491 110.556 80.254 110.764 80.6404C110.976 81.0268 111.082 81.5097 111.082 82.0893V87.9302H109.105V86.7313H109.037C108.912 86.9737 108.736 87.201 108.509 87.4131C108.285 87.6215 108.003 87.79 107.662 87.9188C107.325 88.0438 106.929 88.1063 106.474 88.1063ZM107.009 86.5949C107.421 86.5949 107.779 86.5135 108.082 86.3506C108.385 86.184 108.618 85.9643 108.781 85.6915C108.948 85.4188 109.031 85.1215 109.031 84.7995V83.7711C108.967 83.8241 108.857 83.8734 108.702 83.9188C108.55 83.9643 108.38 84.004 108.19 84.0381C108.001 84.0722 107.813 84.1025 107.628 84.129C107.442 84.1556 107.281 84.1783 107.145 84.1972C106.838 84.2389 106.563 84.3071 106.321 84.4018C106.079 84.4965 105.887 84.629 105.747 84.7995C105.607 84.9662 105.537 85.1821 105.537 85.4472C105.537 85.826 105.675 86.112 105.952 86.3052C106.228 86.4984 106.58 86.5949 107.009 86.5949ZM119.631 88.1063C119.078 88.1063 118.58 88.0078 118.136 87.8109C117.697 87.6101 117.348 87.3146 117.091 86.9245C116.837 86.5343 116.71 86.0533 116.71 85.4813C116.71 84.9889 116.801 84.5817 116.983 84.2597C117.165 83.9378 117.413 83.6802 117.727 83.487C118.042 83.2938 118.396 83.148 118.79 83.0495C119.188 82.9472 119.598 82.8734 120.023 82.8279C120.534 82.7749 120.949 82.7275 121.267 82.6859C121.585 82.6404 121.816 82.5722 121.96 82.4813C122.108 82.3866 122.182 82.2408 122.182 82.0438V82.0097C122.182 81.5817 122.055 81.2503 121.801 81.0154C121.547 80.7806 121.182 80.6631 120.705 80.6631C120.201 80.6631 119.801 80.773 119.506 80.9927C119.214 81.2124 119.017 81.4718 118.915 81.7711L116.994 81.4984C117.146 80.9681 117.396 80.5249 117.744 80.1688C118.093 79.809 118.519 79.54 119.023 79.362C119.527 79.1802 120.083 79.0893 120.693 79.0893C121.114 79.0893 121.532 79.1385 121.949 79.237C122.366 79.3355 122.746 79.4984 123.091 79.7256C123.436 79.9491 123.712 80.254 123.92 80.6404C124.133 81.0268 124.239 81.5097 124.239 82.0893V87.9302H122.261V86.7313H122.193C122.068 86.9737 121.892 87.201 121.665 87.4131C121.441 87.6215 121.159 87.79 120.818 87.9188C120.481 88.0438 120.085 88.1063 119.631 88.1063ZM120.165 86.5949C120.578 86.5949 120.936 86.5135 121.239 86.3506C121.542 86.184 121.775 85.9643 121.938 85.6915C122.104 85.4188 122.188 85.1215 122.188 84.7995V83.7711C122.123 83.8241 122.013 83.8734 121.858 83.9188C121.706 83.9643 121.536 84.004 121.347 84.0381C121.157 84.0722 120.97 84.1025 120.784 84.129C120.598 84.1556 120.438 84.1783 120.301 84.1972C119.994 84.2389 119.72 84.3071 119.477 84.4018C119.235 84.4965 119.044 84.629 118.903 84.7995C118.763 84.9662 118.693 85.1821 118.693 85.4472C118.693 85.826 118.831 86.112 119.108 86.3052C119.384 86.4984 119.737 86.5949 120.165 86.5949ZM133.79 79.2029L130.682 87.9302H128.409L125.301 79.2029H127.494L129.5 85.6859H129.591L131.602 79.2029H133.79ZM137.474 88.1063C136.921 88.1063 136.423 88.0078 135.98 87.8109C135.541 87.6101 135.192 87.3146 134.935 86.9245C134.681 86.5343 134.554 86.0533 134.554 85.4813C134.554 84.9889 134.645 84.5817 134.827 84.2597C135.009 83.9378 135.257 83.6802 135.571 83.487C135.885 83.2938 136.24 83.148 136.634 83.0495C137.031 82.9472 137.442 82.8734 137.866 82.8279C138.378 82.7749 138.793 82.7275 139.111 82.6859C139.429 82.6404 139.66 82.5722 139.804 82.4813C139.952 82.3866 140.026 82.2408 140.026 82.0438V82.0097C140.026 81.5817 139.899 81.2503 139.645 81.0154C139.391 80.7806 139.026 80.6631 138.548 80.6631C138.045 80.6631 137.645 80.773 137.349 80.9927C137.058 81.2124 136.861 81.4718 136.759 81.7711L134.838 81.4984C134.99 80.9681 135.24 80.5249 135.588 80.1688C135.937 79.809 136.363 79.54 136.866 79.362C137.37 79.1802 137.927 79.0893 138.537 79.0893C138.957 79.0893 139.376 79.1385 139.793 79.237C140.209 79.3355 140.59 79.4984 140.935 79.7256C141.279 79.9491 141.556 80.254 141.764 80.6404C141.976 81.0268 142.082 81.5097 142.082 82.0893V87.9302H140.105V86.7313H140.037C139.912 86.9737 139.736 87.201 139.509 87.4131C139.285 87.6215 139.003 87.79 138.662 87.9188C138.325 88.0438 137.929 88.1063 137.474 88.1063ZM138.009 86.5949C138.421 86.5949 138.779 86.5135 139.082 86.3506C139.385 86.184 139.618 85.9643 139.781 85.6915C139.948 85.4188 140.031 85.1215 140.031 84.7995V83.7711C139.967 83.8241 139.857 83.8734 139.702 83.9188C139.55 83.9643 139.38 84.004 139.19 84.0381C139.001 84.0722 138.813 84.1025 138.628 84.129C138.442 84.1556 138.281 84.1783 138.145 84.1972C137.838 84.2389 137.563 84.3071 137.321 84.4018C137.079 84.4965 136.887 84.629 136.747 84.7995C136.607 84.9662 136.537 85.1821 136.537 85.4472C136.537 85.826 136.675 86.112 136.952 86.3052C137.228 86.4984 137.58 86.5949 138.009 86.5949ZM144.151 87.9302V79.2029H146.207V87.9302H144.151ZM145.185 77.9643C144.859 77.9643 144.579 77.8563 144.344 77.6404C144.109 77.4207 143.991 77.1574 143.991 76.8506C143.991 76.54 144.109 76.2768 144.344 76.0609C144.579 75.8412 144.859 75.7313 145.185 75.7313C145.514 75.7313 145.795 75.8412 146.026 76.0609C146.26 76.2768 146.378 76.54 146.378 76.8506C146.378 77.1574 146.26 77.4207 146.026 77.6404C145.795 77.8563 145.514 77.9643 145.185 77.9643ZM150.379 76.2938V87.9302H148.322V76.2938H150.379ZM155.006 88.1063C154.453 88.1063 153.955 88.0078 153.511 87.8109C153.072 87.6101 152.723 87.3146 152.466 86.9245C152.212 86.5343 152.085 86.0533 152.085 85.4813C152.085 84.9889 152.176 84.5817 152.358 84.2597C152.54 83.9378 152.788 83.6802 153.102 83.487C153.417 83.2938 153.771 83.148 154.165 83.0495C154.563 82.9472 154.973 82.8734 155.398 82.8279C155.909 82.7749 156.324 82.7275 156.642 82.6859C156.96 82.6404 157.191 82.5722 157.335 82.4813C157.483 82.3866 157.557 82.2408 157.557 82.0438V82.0097C157.557 81.5817 157.43 81.2503 157.176 81.0154C156.922 80.7806 156.557 80.6631 156.08 80.6631C155.576 80.6631 155.176 80.773 154.881 80.9927C154.589 81.2124 154.392 81.4718 154.29 81.7711L152.369 81.4984C152.521 80.9681 152.771 80.5249 153.119 80.1688C153.468 79.809 153.894 79.54 154.398 79.362C154.902 79.1802 155.458 79.0893 156.068 79.0893C156.489 79.0893 156.907 79.1385 157.324 79.237C157.741 79.3355 158.121 79.4984 158.466 79.7256C158.811 79.9491 159.087 80.254 159.295 80.6404C159.508 81.0268 159.614 81.5097 159.614 82.0893V87.9302H157.636V86.7313H157.568C157.443 86.9737 157.267 87.201 157.04 87.4131C156.816 87.6215 156.534 87.79 156.193 87.9188C155.856 88.0438 155.46 88.1063 155.006 88.1063ZM155.54 86.5949C155.953 86.5949 156.311 86.5135 156.614 86.3506C156.917 86.184 157.15 85.9643 157.312 85.6915C157.479 85.4188 157.562 85.1215 157.562 84.7995V83.7711C157.498 83.8241 157.388 83.8734 157.233 83.9188C157.081 83.9643 156.911 84.004 156.722 84.0381C156.532 84.0722 156.345 84.1025 156.159 84.129C155.973 84.1556 155.813 84.1783 155.676 84.1972C155.369 84.2389 155.095 84.3071 154.852 84.4018C154.61 84.4965 154.419 84.629 154.278 84.7995C154.138 84.9662 154.068 85.1821 154.068 85.4472C154.068 85.826 154.206 86.112 154.483 86.3052C154.759 86.4984 155.112 86.5949 155.54 86.5949ZM161.773 87.9302V76.2938H163.83V80.6461H163.915C164.021 80.434 164.17 80.2086 164.364 79.9699C164.557 79.7275 164.818 79.5211 165.148 79.3506C165.477 79.1764 165.898 79.0893 166.409 79.0893C167.083 79.0893 167.691 79.2616 168.233 79.6063C168.778 79.9472 169.21 80.4529 169.528 81.1234C169.85 81.79 170.011 82.6082 170.011 83.5779C170.011 84.5362 169.854 85.3506 169.54 86.0211C169.225 86.6915 168.797 87.2029 168.256 87.5552C167.714 87.9074 167.1 88.0836 166.415 88.0836C165.915 88.0836 165.5 88.0003 165.17 87.8336C164.841 87.6669 164.576 87.4662 164.375 87.2313C164.178 86.9927 164.025 86.7673 163.915 86.5552H163.795V87.9302H161.773ZM163.79 83.5665C163.79 84.1309 163.869 84.6253 164.028 85.0495C164.191 85.4737 164.424 85.8052 164.727 86.0438C165.034 86.2787 165.405 86.3961 165.841 86.3961C166.295 86.3961 166.676 86.2749 166.983 86.0324C167.29 85.7862 167.521 85.451 167.676 85.0268C167.835 84.5987 167.915 84.112 167.915 83.5665C167.915 83.0249 167.837 82.5438 167.682 82.1234C167.527 81.7029 167.295 81.3734 166.989 81.1347C166.682 80.8961 166.299 80.7768 165.841 80.7768C165.402 80.7768 165.028 80.8923 164.722 81.1234C164.415 81.3544 164.182 81.6783 164.023 82.0949C163.867 82.5116 163.79 83.0021 163.79 83.5665ZM173.817 76.2938V87.9302H171.76V76.2938H173.817ZM179.795 88.1006C178.92 88.1006 178.165 87.9188 177.528 87.5552C176.896 87.1878 176.409 86.6688 176.068 85.9984C175.727 85.3241 175.557 84.5306 175.557 83.6177C175.557 82.7199 175.727 81.9321 176.068 81.254C176.413 80.5722 176.894 80.0419 177.511 79.6631C178.129 79.2806 178.854 79.0893 179.688 79.0893C180.225 79.0893 180.733 79.1764 181.21 79.3506C181.691 79.5211 182.116 79.7862 182.483 80.1461C182.854 80.5059 183.146 80.9643 183.358 81.5211C183.57 82.0741 183.676 82.7332 183.676 83.4984V84.129H176.523V82.7427H181.705C181.701 82.3487 181.616 81.9984 181.449 81.6915C181.282 81.3809 181.049 81.1366 180.75 80.9586C180.455 80.7806 180.11 80.6915 179.716 80.6915C179.295 80.6915 178.926 80.7938 178.608 80.9984C178.29 81.1991 178.042 81.4643 177.864 81.7938C177.689 82.1196 177.6 82.4775 177.597 82.8677V84.0779C177.597 84.5855 177.689 85.0211 177.875 85.3847C178.061 85.7446 178.32 86.0211 178.653 86.2143C178.987 86.4037 179.377 86.4984 179.824 86.4984C180.123 86.4984 180.394 86.4567 180.636 86.3734C180.879 86.2862 181.089 86.1593 181.267 85.9927C181.445 85.826 181.58 85.6196 181.67 85.3734L183.591 85.5893C183.47 86.0968 183.239 86.54 182.898 86.9188C182.561 87.2938 182.129 87.5855 181.602 87.7938C181.076 87.9984 180.473 88.1006 179.795 88.1006Z" fill="#1C1C1C"/>
<path d="M9.85272 113.748V123.93H8.65954L3.11124 115.936H3.01181V123.93H1.77885V113.748H2.97203L8.54022 121.763H8.63965V113.748H9.85272ZM15.2631 124.089C14.5737 124.089 13.9688 123.925 13.4484 123.597C12.9314 123.269 12.527 122.81 12.2354 122.22C11.947 121.63 11.8028 120.941 11.8028 120.152C11.8028 119.356 11.947 118.662 12.2354 118.069C12.527 117.475 12.9314 117.015 13.4484 116.687C13.9688 116.358 14.5737 116.194 15.2631 116.194C15.9524 116.194 16.5557 116.358 17.0727 116.687C17.5931 117.015 17.9974 117.475 18.2858 118.069C18.5774 118.662 18.7233 119.356 18.7233 120.152C18.7233 120.941 18.5774 121.63 18.2858 122.22C17.9974 122.81 17.5931 123.269 17.0727 123.597C16.5557 123.925 15.9524 124.089 15.2631 124.089ZM15.2631 123.035C15.7867 123.035 16.2176 122.901 16.5557 122.633C16.8937 122.364 17.144 122.011 17.3064 121.574C17.4688 121.136 17.55 120.662 17.55 120.152C17.55 119.641 17.4688 119.166 17.3064 118.725C17.144 118.284 16.8937 117.928 16.5557 117.656C16.2176 117.384 15.7867 117.248 15.2631 117.248C14.7394 117.248 14.3085 117.384 13.9704 117.656C13.6324 117.928 13.3821 118.284 13.2197 118.725C13.0573 119.166 12.9761 119.641 12.9761 120.152C12.9761 120.662 13.0573 121.136 13.2197 121.574C13.3821 122.011 13.6324 122.364 13.9704 122.633C14.3085 122.901 14.7394 123.035 15.2631 123.035ZM24.4518 123.93V116.294H25.5853V117.447H25.6649C25.8041 117.069 26.056 116.763 26.4205 116.527C26.7851 116.292 27.1961 116.174 27.6535 116.174C27.7397 116.174 27.8474 116.176 27.9767 116.179C28.1059 116.183 28.2037 116.188 28.27 116.194V117.388C28.2302 117.378 28.1391 117.363 27.9965 117.343C27.8573 117.32 27.7098 117.308 27.5541 117.308C27.1829 117.308 26.8514 117.386 26.5597 117.542C26.2714 117.694 26.0427 117.906 25.8737 118.178C25.7079 118.447 25.6251 118.753 25.6251 119.098V123.93H24.4518ZM32.6301 124.089C31.8943 124.089 31.2596 123.927 30.7259 123.602C30.1956 123.274 29.7863 122.817 29.498 122.23C29.2129 121.64 29.0704 120.954 29.0704 120.172C29.0704 119.389 29.2129 118.7 29.498 118.103C29.7863 117.504 30.1874 117.036 30.7011 116.701C31.2181 116.363 31.8213 116.194 32.5107 116.194C32.9085 116.194 33.3012 116.261 33.689 116.393C34.0768 116.526 34.4298 116.741 34.748 117.04C35.0661 117.335 35.3197 117.726 35.5086 118.213C35.6975 118.7 35.792 119.3 35.792 120.013V120.51H29.9056V119.496H34.5988C34.5988 119.065 34.5126 118.68 34.3403 118.342C34.1713 118.004 33.9293 117.737 33.6144 117.542C33.3029 117.346 32.935 117.248 32.5107 117.248C32.0434 117.248 31.6391 117.364 31.2977 117.596C30.9596 117.825 30.6994 118.123 30.5171 118.491C30.3348 118.859 30.2437 119.254 30.2437 119.674V120.351C30.2437 120.927 30.3431 121.416 30.542 121.817C30.7442 122.215 31.0242 122.518 31.3822 122.727C31.7401 122.933 32.1561 123.035 32.6301 123.035C32.9383 123.035 33.2167 122.992 33.4653 122.906C33.7172 122.817 33.9343 122.684 34.1166 122.508C34.2989 122.329 34.4397 122.107 34.5392 121.842L35.6727 122.16C35.5534 122.545 35.3528 122.883 35.0711 123.174C34.7894 123.463 34.4414 123.688 34.0271 123.851C33.6128 124.01 33.1471 124.089 32.6301 124.089ZM40.6791 124.089C39.9632 124.089 39.3467 123.92 38.8296 123.582C38.3126 123.244 37.9149 122.778 37.6365 122.185C37.358 121.592 37.2188 120.914 37.2188 120.152C37.2188 119.376 37.3614 118.692 37.6464 118.098C37.9347 117.502 38.3358 117.036 38.8495 116.701C39.3666 116.363 39.9698 116.194 40.6592 116.194C41.1961 116.194 41.68 116.294 42.1109 116.493C42.5418 116.692 42.8947 116.97 43.1698 117.328C43.4449 117.686 43.6156 118.103 43.6819 118.581H42.5086C42.4191 118.233 42.2203 117.924 41.912 117.656C41.6071 117.384 41.1961 117.248 40.6791 117.248C40.2217 117.248 39.8206 117.368 39.4759 117.606C39.1346 117.842 38.8677 118.175 38.6755 118.606C38.4866 119.033 38.3921 119.535 38.3921 120.112C38.3921 120.702 38.4849 121.216 38.6705 121.653C38.8595 122.091 39.1246 122.43 39.466 122.672C39.8107 122.914 40.2151 123.035 40.6791 123.035C40.984 123.035 41.2607 122.982 41.5093 122.876C41.7579 122.77 41.9684 122.618 42.1407 122.419C42.3131 122.22 42.4357 121.981 42.5086 121.703H43.6819C43.6156 122.154 43.4516 122.56 43.1897 122.921C42.9312 123.279 42.5882 123.564 42.1606 123.776C41.7364 123.985 41.2425 124.089 40.6791 124.089ZM48.4994 124.089C47.81 124.089 47.2051 123.925 46.6847 123.597C46.1677 123.269 45.7633 122.81 45.4717 122.22C45.1833 121.63 45.0392 120.941 45.0392 120.152C45.0392 119.356 45.1833 118.662 45.4717 118.069C45.7633 117.475 46.1677 117.015 46.6847 116.687C47.2051 116.358 47.81 116.194 48.4994 116.194C49.1888 116.194 49.792 116.358 50.309 116.687C50.8294 117.015 51.2338 117.475 51.5221 118.069C51.8138 118.662 51.9596 119.356 51.9596 120.152C51.9596 120.941 51.8138 121.63 51.5221 122.22C51.2338 122.81 50.8294 123.269 50.309 123.597C49.792 123.925 49.1888 124.089 48.4994 124.089ZM48.4994 123.035C49.0231 123.035 49.4539 122.901 49.792 122.633C50.1301 122.364 50.3803 122.011 50.5427 121.574C50.7051 121.136 50.7863 120.662 50.7863 120.152C50.7863 119.641 50.7051 119.166 50.5427 118.725C50.3803 118.284 50.1301 117.928 49.792 117.656C49.4539 117.384 49.0231 117.248 48.4994 117.248C47.9757 117.248 47.5448 117.384 47.2068 117.656C46.8687 117.928 46.6185 118.284 46.4561 118.725C46.2936 119.166 46.2124 119.641 46.2124 120.152C46.2124 120.662 46.2936 121.136 46.4561 121.574C46.6185 122.011 46.8687 122.364 47.2068 122.633C47.5448 122.901 47.9757 123.035 48.4994 123.035ZM53.7506 123.93V116.294H54.8841V117.447H54.9637C55.1029 117.069 55.3548 116.763 55.7194 116.527C56.084 116.292 56.4949 116.174 56.9523 116.174C57.0385 116.174 57.1462 116.176 57.2755 116.179C57.4047 116.183 57.5025 116.188 57.5688 116.194V117.388C57.529 117.378 57.4379 117.363 57.2954 117.343C57.1562 117.32 57.0087 117.308 56.8529 117.308C56.4817 117.308 56.1502 117.386 55.8586 117.542C55.5702 117.694 55.3415 117.906 55.1725 118.178C55.0068 118.447 54.9239 118.753 54.9239 119.098V123.93H53.7506ZM61.6107 124.089C60.9743 124.089 60.4126 123.929 59.9253 123.607C59.4381 123.282 59.057 122.825 58.7819 122.235C58.5068 121.642 58.3692 120.941 58.3692 120.132C58.3692 119.33 58.5068 118.634 58.7819 118.044C59.057 117.454 59.4398 116.998 59.9303 116.677C60.4208 116.355 60.9876 116.194 61.6306 116.194C62.1278 116.194 62.5205 116.277 62.8089 116.443C63.1005 116.605 63.3226 116.791 63.4751 117C63.6308 117.205 63.7518 117.374 63.838 117.507H63.9374V113.748H65.1107V123.93H63.9772V122.757H63.838C63.7518 122.896 63.6292 123.072 63.4701 123.284C63.311 123.493 63.084 123.68 62.789 123.846C62.494 124.008 62.1012 124.089 61.6107 124.089ZM61.7698 123.035C62.2404 123.035 62.6382 122.913 62.963 122.667C63.2878 122.419 63.5347 122.076 63.7037 121.638C63.8728 121.197 63.9573 120.689 63.9573 120.112C63.9573 119.542 63.8744 119.043 63.7087 118.616C63.543 118.185 63.2977 117.85 62.9729 117.611C62.6481 117.369 62.2471 117.248 61.7698 117.248C61.2726 117.248 60.8583 117.376 60.5269 117.631C60.1988 117.883 59.9519 118.226 59.7861 118.66C59.6237 119.091 59.5425 119.575 59.5425 120.112C59.5425 120.656 59.6254 121.149 59.7911 121.594C59.9601 122.034 60.2087 122.386 60.5368 122.648C60.8683 122.906 61.2793 123.035 61.7698 123.035ZM72.8316 118.004L71.7776 118.302C71.7113 118.127 71.6135 117.956 71.4843 117.79C71.3583 117.621 71.186 117.482 70.9672 117.373C70.7485 117.263 70.4684 117.209 70.127 117.209C69.6597 117.209 69.2703 117.316 68.9587 117.532C68.6505 117.744 68.4964 118.014 68.4964 118.342C68.4964 118.634 68.6024 118.864 68.8145 119.033C69.0267 119.202 69.3581 119.343 69.8089 119.456L70.9424 119.734C71.6251 119.9 72.1339 120.153 72.4687 120.495C72.8034 120.833 72.9708 121.269 72.9708 121.802C72.9708 122.24 72.8448 122.631 72.593 122.976C72.3444 123.32 71.9964 123.592 71.5489 123.791C71.1015 123.99 70.5811 124.089 69.9878 124.089C69.209 124.089 68.5643 123.92 68.0539 123.582C67.5435 123.244 67.2203 122.75 67.0844 122.101L68.1981 121.822C68.3041 122.233 68.5046 122.541 68.7996 122.747C69.0979 122.952 69.4874 123.055 69.968 123.055C70.5148 123.055 70.949 122.939 71.2705 122.707C71.5953 122.472 71.7577 122.19 71.7577 121.862C71.7577 121.597 71.6649 121.375 71.4793 121.196C71.2937 121.014 71.0087 120.878 70.6242 120.788L69.3515 120.49C68.6521 120.324 68.1384 120.067 67.8103 119.719C67.4855 119.368 67.3231 118.929 67.3231 118.402C67.3231 117.971 67.444 117.59 67.686 117.258C67.9313 116.927 68.2644 116.667 68.6853 116.478C69.1095 116.289 69.5901 116.194 70.127 116.194C70.8827 116.194 71.476 116.36 71.9069 116.692C72.3411 117.023 72.6493 117.46 72.8316 118.004ZM80.9216 124.109C80.4377 124.109 79.9986 124.018 79.6041 123.836C79.2097 123.65 78.8965 123.383 78.6645 123.035C78.4325 122.684 78.3165 122.26 78.3165 121.763C78.3165 121.325 78.4027 120.97 78.575 120.699C78.7474 120.424 78.9777 120.208 79.2661 120.052C79.5544 119.897 79.8726 119.781 80.2206 119.704C80.5719 119.625 80.9249 119.562 81.2796 119.515C81.7436 119.456 82.1198 119.411 82.4081 119.381C82.6998 119.348 82.9119 119.293 83.0445 119.217C83.1804 119.141 83.2483 119.008 83.2483 118.819V118.78C83.2483 118.289 83.1141 117.908 82.8456 117.636C82.5805 117.364 82.1778 117.228 81.6375 117.228C81.0774 117.228 80.6382 117.351 80.32 117.596C80.0019 117.842 79.7781 118.103 79.6489 118.382L78.5352 117.984C78.7341 117.52 78.9993 117.159 79.3307 116.9C79.6655 116.639 80.03 116.456 80.4244 116.353C80.8222 116.247 81.2133 116.194 81.5977 116.194C81.843 116.194 82.1247 116.224 82.4429 116.284C82.7644 116.34 83.0743 116.458 83.3726 116.637C83.6742 116.816 83.9244 117.086 84.1233 117.447C84.3222 117.808 84.4216 118.292 84.4216 118.899V123.93H83.2483V122.896H83.1887C83.1091 123.062 82.9765 123.239 82.7909 123.428C82.6053 123.617 82.3584 123.778 82.0502 123.91C81.7419 124.043 81.3657 124.109 80.9216 124.109ZM81.1006 123.055C81.5646 123.055 81.9557 122.964 82.2739 122.782C82.5954 122.599 82.8373 122.364 82.9997 122.076C83.1655 121.787 83.2483 121.484 83.2483 121.166V120.092C83.1986 120.152 83.0892 120.206 82.9202 120.256C82.7545 120.303 82.5622 120.344 82.3435 120.38C82.128 120.414 81.9176 120.443 81.7121 120.47C81.5099 120.493 81.3459 120.513 81.2199 120.53C80.915 120.569 80.6299 120.634 80.3648 120.723C80.103 120.81 79.8908 120.941 79.7284 121.116C79.5693 121.289 79.4898 121.524 79.4898 121.822C79.4898 122.23 79.6406 122.538 79.9422 122.747C80.2471 122.952 80.6333 123.055 81.1006 123.055ZM86.5631 123.93V116.294H87.6966V117.447H87.7762C87.9154 117.069 88.1673 116.763 88.5319 116.527C88.8965 116.292 89.3074 116.174 89.7648 116.174C89.851 116.174 89.9587 116.176 90.088 116.179C90.2172 116.183 90.315 116.188 90.3813 116.194V117.388C90.3415 117.378 90.2504 117.363 90.1079 117.343C89.9687 117.32 89.8212 117.308 89.6654 117.308C89.2942 117.308 88.9627 117.386 88.6711 117.542C88.3827 117.694 88.154 117.906 87.985 118.178C87.8193 118.447 87.7364 118.753 87.7364 119.098V123.93H86.5631ZM94.7414 124.089C94.0056 124.089 93.3709 123.927 92.8373 123.602C92.307 123.274 91.8976 122.817 91.6093 122.23C91.3242 121.64 91.1817 120.954 91.1817 120.172C91.1817 119.389 91.3242 118.7 91.6093 118.103C91.8976 117.504 92.2987 117.036 92.8124 116.701C93.3295 116.363 93.9327 116.194 94.6221 116.194C95.0198 116.194 95.4126 116.261 95.8003 116.393C96.1881 116.526 96.5411 116.741 96.8593 117.04C97.1775 117.335 97.431 117.726 97.6199 118.213C97.8089 118.7 97.9033 119.3 97.9033 120.013V120.51H92.017V119.496H96.7101C96.7101 119.065 96.624 118.68 96.4516 118.342C96.2826 118.004 96.0406 117.737 95.7258 117.542C95.4142 117.346 95.0463 117.248 94.6221 117.248C94.1547 117.248 93.7504 117.364 93.409 117.596C93.0709 117.825 92.8108 118.123 92.6285 118.491C92.4462 118.859 92.355 119.254 92.355 119.674V120.351C92.355 120.927 92.4545 121.416 92.6533 121.817C92.8555 122.215 93.1356 122.518 93.4935 122.727C93.8515 122.933 94.2674 123.035 94.7414 123.035C95.0496 123.035 95.328 122.992 95.5766 122.906C95.8285 122.817 96.0456 122.684 96.2279 122.508C96.4102 122.329 96.551 122.107 96.6505 121.842L97.784 122.16C97.6647 122.545 97.4642 122.883 97.1824 123.174C96.9007 123.463 96.5527 123.688 96.1384 123.851C95.7241 124.01 95.2584 124.089 94.7414 124.089ZM105.873 124.109C105.389 124.109 104.95 124.018 104.555 123.836C104.161 123.65 103.848 123.383 103.616 123.035C103.384 122.684 103.268 122.26 103.268 121.763C103.268 121.325 103.354 120.97 103.526 120.699C103.699 120.424 103.929 120.208 104.217 120.052C104.506 119.897 104.824 119.781 105.172 119.704C105.523 119.625 105.876 119.562 106.231 119.515C106.695 119.456 107.071 119.411 107.359 119.381C107.651 119.348 107.863 119.293 107.996 119.217C108.132 119.141 108.199 119.008 108.199 118.819V118.78C108.199 118.289 108.065 117.908 107.797 117.636C107.532 117.364 107.129 117.228 106.589 117.228C106.029 117.228 105.589 117.351 105.271 117.596C104.953 117.842 104.729 118.103 104.6 118.382L103.486 117.984C103.685 117.52 103.95 117.159 104.282 116.9C104.617 116.639 104.981 116.456 105.376 116.353C105.773 116.247 106.164 116.194 106.549 116.194C106.794 116.194 107.076 116.224 107.394 116.284C107.716 116.34 108.025 116.458 108.324 116.637C108.625 116.816 108.876 117.086 109.074 117.447C109.273 117.808 109.373 118.292 109.373 118.899V123.93H108.199V122.896H108.14C108.06 123.062 107.928 123.239 107.742 123.428C107.556 123.617 107.31 123.778 107.001 123.91C106.693 124.043 106.317 124.109 105.873 124.109ZM106.052 123.055C106.516 123.055 106.907 122.964 107.225 122.782C107.547 122.599 107.789 122.364 107.951 122.076C108.117 121.787 108.199 121.484 108.199 121.166V120.092C108.15 120.152 108.04 120.206 107.871 120.256C107.706 120.303 107.513 120.344 107.295 120.38C107.079 120.414 106.869 120.443 106.663 120.47C106.461 120.493 106.297 120.513 106.171 120.53C105.866 120.569 105.581 120.634 105.316 120.723C105.054 120.81 104.842 120.941 104.68 121.116C104.521 121.289 104.441 121.524 104.441 121.822C104.441 122.23 104.592 122.538 104.893 122.747C105.198 122.952 105.584 123.055 106.052 123.055ZM117.485 116.294L114.661 123.93H113.468L110.644 116.294H111.917L114.025 122.379H114.104L116.212 116.294H117.485ZM121.049 124.109C120.565 124.109 120.126 124.018 119.731 123.836C119.337 123.65 119.023 123.383 118.791 123.035C118.559 122.684 118.443 122.26 118.443 121.763C118.443 121.325 118.53 120.97 118.702 120.699C118.874 120.424 119.105 120.208 119.393 120.052C119.681 119.897 120 119.781 120.348 119.704C120.699 119.625 121.052 119.562 121.407 119.515C121.871 119.456 122.247 119.411 122.535 119.381C122.827 119.348 123.039 119.293 123.171 119.217C123.307 119.141 123.375 119.008 123.375 118.819V118.78C123.375 118.289 123.241 117.908 122.973 117.636C122.707 117.364 122.305 117.228 121.764 117.228C121.204 117.228 120.765 117.351 120.447 117.596C120.129 117.842 119.905 118.103 119.776 118.382L118.662 117.984C118.861 117.52 119.126 117.159 119.458 116.9C119.792 116.639 120.157 116.456 120.551 116.353C120.949 116.247 121.34 116.194 121.725 116.194C121.97 116.194 122.252 116.224 122.57 116.284C122.891 116.34 123.201 116.458 123.5 116.637C123.801 116.816 124.051 117.086 124.25 117.447C124.449 117.808 124.549 118.292 124.549 118.899V123.93H123.375V122.896H123.316C123.236 123.062 123.103 123.239 122.918 123.428C122.732 123.617 122.485 123.778 122.177 123.91C121.869 124.043 121.493 124.109 121.049 124.109ZM121.228 123.055C121.692 123.055 122.083 122.964 122.401 122.782C122.722 122.599 122.964 122.364 123.127 122.076C123.292 121.787 123.375 121.484 123.375 121.166V120.092C123.326 120.152 123.216 120.206 123.047 120.256C122.881 120.303 122.689 120.344 122.47 120.38C122.255 120.414 122.045 120.443 121.839 120.47C121.637 120.493 121.473 120.513 121.347 120.53C121.042 120.569 120.757 120.634 120.492 120.723C120.23 120.81 120.018 120.941 119.855 121.116C119.696 121.289 119.617 121.524 119.617 121.822C119.617 122.23 119.768 122.538 120.069 122.747C120.374 122.952 120.76 123.055 121.228 123.055ZM126.69 123.93V116.294H127.863V123.93H126.69ZM127.287 115.021C127.058 115.021 126.861 114.943 126.695 114.787C126.533 114.632 126.451 114.444 126.451 114.226C126.451 114.007 126.533 113.82 126.695 113.664C126.861 113.508 127.058 113.43 127.287 113.43C127.515 113.43 127.711 113.508 127.873 113.664C128.039 113.82 128.122 114.007 128.122 114.226C128.122 114.444 128.039 114.632 127.873 114.787C127.711 114.943 127.515 115.021 127.287 115.021ZM131.186 113.748V123.93H130.012V113.748H131.186ZM135.582 124.109C135.098 124.109 134.659 124.018 134.264 123.836C133.87 123.65 133.557 123.383 133.325 123.035C133.093 122.684 132.977 122.26 132.977 121.763C132.977 121.325 133.063 120.97 133.235 120.699C133.408 120.424 133.638 120.208 133.926 120.052C134.215 119.897 134.533 119.781 134.881 119.704C135.232 119.625 135.585 119.562 135.94 119.515C136.404 119.456 136.78 119.411 137.068 119.381C137.36 119.348 137.572 119.293 137.705 119.217C137.841 119.141 137.908 119.008 137.908 118.819V118.78C137.908 118.289 137.774 117.908 137.506 117.636C137.241 117.364 136.838 117.228 136.298 117.228C135.738 117.228 135.298 117.351 134.98 117.596C134.662 117.842 134.438 118.103 134.309 118.382L133.195 117.984C133.394 117.52 133.659 117.159 133.991 116.9C134.326 116.639 134.69 116.456 135.085 116.353C135.482 116.247 135.873 116.194 136.258 116.194C136.503 116.194 136.785 116.224 137.103 116.284C137.425 116.34 137.734 116.458 138.033 116.637C138.334 116.816 138.585 117.086 138.783 117.447C138.982 117.808 139.082 118.292 139.082 118.899V123.93H137.908V122.896H137.849C137.769 123.062 137.637 123.239 137.451 123.428C137.265 123.617 137.019 123.778 136.71 123.91C136.402 124.043 136.026 124.109 135.582 124.109ZM135.761 123.055C136.225 123.055 136.616 122.964 136.934 122.782C137.256 122.599 137.497 122.364 137.66 122.076C137.826 121.787 137.908 121.484 137.908 121.166V120.092C137.859 120.152 137.749 120.206 137.58 120.256C137.415 120.303 137.222 120.344 137.004 120.38C136.788 120.414 136.578 120.443 136.372 120.47C136.17 120.493 136.006 120.513 135.88 120.53C135.575 120.569 135.29 120.634 135.025 120.723C134.763 120.81 134.551 120.941 134.389 121.116C134.229 121.289 134.15 121.524 134.15 121.822C134.15 122.23 134.301 122.538 134.602 122.747C134.907 122.952 135.293 123.055 135.761 123.055ZM141.382 123.93V113.748H142.556V117.507H142.655C142.741 117.374 142.861 117.205 143.013 117C143.169 116.791 143.391 116.605 143.679 116.443C143.971 116.277 144.365 116.194 144.862 116.194C145.505 116.194 146.072 116.355 146.563 116.677C147.053 116.998 147.436 117.454 147.711 118.044C147.986 118.634 148.124 119.33 148.124 120.132C148.124 120.941 147.986 121.642 147.711 122.235C147.436 122.825 147.055 123.282 146.568 123.607C146.081 123.929 145.519 124.089 144.882 124.089C144.392 124.089 143.999 124.008 143.704 123.846C143.409 123.68 143.182 123.493 143.023 123.284C142.864 123.072 142.741 122.896 142.655 122.757H142.516V123.93H141.382ZM142.536 120.112C142.536 120.689 142.62 121.197 142.789 121.638C142.958 122.076 143.205 122.419 143.53 122.667C143.855 122.913 144.253 123.035 144.723 123.035C145.214 123.035 145.623 122.906 145.951 122.648C146.283 122.386 146.531 122.034 146.697 121.594C146.866 121.149 146.951 120.656 146.951 120.112C146.951 119.575 146.868 119.091 146.702 118.66C146.54 118.226 146.293 117.883 145.961 117.631C145.633 117.376 145.22 117.248 144.723 117.248C144.246 117.248 143.845 117.369 143.52 117.611C143.195 117.85 142.95 118.185 142.784 118.616C142.619 119.043 142.536 119.542 142.536 120.112ZM151.092 113.748V123.93H149.919V113.748H151.092ZM156.443 124.089C155.707 124.089 155.072 123.927 154.538 123.602C154.008 123.274 153.599 122.817 153.31 122.23C153.025 121.64 152.883 120.954 152.883 120.172C152.883 119.389 153.025 118.7 153.31 118.103C153.599 117.504 154 117.036 154.514 116.701C155.031 116.363 155.634 116.194 156.323 116.194C156.721 116.194 157.114 116.261 157.502 116.393C157.889 116.526 158.242 116.741 158.56 117.04C158.879 117.335 159.132 117.726 159.321 118.213C159.51 118.7 159.604 119.3 159.604 120.013V120.51H153.718V119.496H158.411C158.411 119.065 158.325 118.68 158.153 118.342C157.984 118.004 157.742 117.737 157.427 117.542C157.115 117.346 156.747 117.248 156.323 117.248C155.856 117.248 155.452 117.364 155.11 117.596C154.772 117.825 154.512 118.123 154.33 118.491C154.147 118.859 154.056 119.254 154.056 119.674V120.351C154.056 120.927 154.156 121.416 154.354 121.817C154.557 122.215 154.837 122.518 155.195 122.727C155.553 122.933 155.969 123.035 156.443 123.035C156.751 123.035 157.029 122.992 157.278 122.906C157.53 122.817 157.747 122.684 157.929 122.508C158.111 122.329 158.252 122.107 158.352 121.842L159.485 122.16C159.366 122.545 159.165 122.883 158.884 123.174C158.602 123.463 158.254 123.688 157.84 123.851C157.425 124.01 156.96 124.089 156.443 124.089ZM168.727 116.294V117.288H164.611V116.294H168.727ZM165.844 123.93V115.24C165.844 114.802 165.947 114.438 166.152 114.146C166.358 113.854 166.624 113.636 166.953 113.49C167.281 113.344 167.627 113.271 167.992 113.271C168.28 113.271 168.515 113.294 168.698 113.341C168.88 113.387 169.016 113.43 169.105 113.47L168.767 114.484C168.707 114.464 168.625 114.439 168.519 114.41C168.416 114.38 168.28 114.365 168.111 114.365C167.723 114.365 167.443 114.463 167.271 114.658C167.102 114.854 167.017 115.14 167.017 115.518V123.93H165.844ZM173.16 124.089C172.47 124.089 171.865 123.925 171.345 123.597C170.828 123.269 170.424 122.81 170.132 122.22C169.843 121.63 169.699 120.941 169.699 120.152C169.699 119.356 169.843 118.662 170.132 118.069C170.424 117.475 170.828 117.015 171.345 116.687C171.865 116.358 172.47 116.194 173.16 116.194C173.849 116.194 174.452 116.358 174.969 116.687C175.49 117.015 175.894 117.475 176.182 118.069C176.474 118.662 176.62 119.356 176.62 120.152C176.62 120.941 176.474 121.63 176.182 122.22C175.894 122.81 175.49 123.269 174.969 123.597C174.452 123.925 173.849 124.089 173.16 124.089ZM173.16 123.035C173.683 123.035 174.114 122.901 174.452 122.633C174.79 122.364 175.04 122.011 175.203 121.574C175.365 121.136 175.446 120.662 175.446 120.152C175.446 119.641 175.365 119.166 175.203 118.725C175.04 118.284 174.79 117.928 174.452 117.656C174.114 117.384 173.683 117.248 173.16 117.248C172.636 117.248 172.205 117.384 171.867 117.656C171.529 117.928 171.279 118.284 171.116 118.725C170.954 119.166 170.873 119.641 170.873 120.152C170.873 120.662 170.954 121.136 171.116 121.574C171.279 122.011 171.529 122.364 171.867 122.633C172.205 122.901 172.636 123.035 173.16 123.035ZM178.411 123.93V116.294H179.544V117.447H179.624C179.763 117.069 180.015 116.763 180.38 116.527C180.744 116.292 181.155 116.174 181.612 116.174C181.699 116.174 181.806 116.176 181.936 116.179C182.065 116.183 182.163 116.188 182.229 116.194V117.388C182.189 117.378 182.098 117.363 181.956 117.343C181.816 117.32 181.669 117.308 181.513 117.308C181.142 117.308 180.81 117.386 180.519 117.542C180.23 117.694 180.002 117.906 179.833 118.178C179.667 118.447 179.584 118.753 179.584 119.098V123.93H178.411ZM190.441 124.089C189.804 124.089 189.243 123.929 188.755 123.607C188.268 123.282 187.887 122.825 187.612 122.235C187.337 121.642 187.199 120.941 187.199 120.132C187.199 119.33 187.337 118.634 187.612 118.044C187.887 117.454 188.27 116.998 188.76 116.677C189.251 116.355 189.818 116.194 190.461 116.194C190.958 116.194 191.351 116.277 191.639 116.443C191.931 116.605 192.153 116.791 192.305 117C192.461 117.205 192.582 117.374 192.668 117.507H192.767V113.748H193.941V123.93H192.807V122.757H192.668C192.582 122.896 192.459 123.072 192.3 123.284C192.141 123.493 191.914 123.68 191.619 123.846C191.324 124.008 190.931 124.089 190.441 124.089ZM190.6 123.035C191.071 123.035 191.468 122.913 191.793 122.667C192.118 122.419 192.365 122.076 192.534 121.638C192.703 121.197 192.787 120.689 192.787 120.112C192.787 119.542 192.705 119.043 192.539 118.616C192.373 118.185 192.128 117.85 191.803 117.611C191.478 117.369 191.077 117.248 190.6 117.248C190.103 117.248 189.688 117.376 189.357 117.631C189.029 117.883 188.782 118.226 188.616 118.66C188.454 119.091 188.373 119.575 188.373 120.112C188.373 120.656 188.455 121.149 188.621 121.594C188.79 122.034 189.039 122.386 189.367 122.648C189.698 122.906 190.109 123.035 190.6 123.035ZM196.253 123.93V116.294H197.426V123.93H196.253ZM196.849 115.021C196.62 115.021 196.423 114.943 196.258 114.787C196.095 114.632 196.014 114.444 196.014 114.226C196.014 114.007 196.095 113.82 196.258 113.664C196.423 113.508 196.62 113.43 196.849 113.43C197.078 113.43 197.273 113.508 197.436 113.664C197.602 113.82 197.684 114.007 197.684 114.226C197.684 114.444 197.602 114.632 197.436 114.787C197.273 114.943 197.078 115.021 196.849 115.021ZM204.984 118.004L203.93 118.302C203.864 118.127 203.766 117.956 203.637 117.79C203.511 117.621 203.338 117.482 203.12 117.373C202.901 117.263 202.621 117.209 202.279 117.209C201.812 117.209 201.423 117.316 201.111 117.532C200.803 117.744 200.649 118.014 200.649 118.342C200.649 118.634 200.755 118.864 200.967 119.033C201.179 119.202 201.51 119.343 201.961 119.456L203.095 119.734C203.777 119.9 204.286 120.153 204.621 120.495C204.956 120.833 205.123 121.269 205.123 121.802C205.123 122.24 204.997 122.631 204.745 122.976C204.497 123.32 204.149 123.592 203.701 123.791C203.254 123.99 202.733 124.089 202.14 124.089C201.361 124.089 200.717 123.92 200.206 123.582C199.696 123.244 199.373 122.75 199.237 122.101L200.35 121.822C200.456 122.233 200.657 122.541 200.952 122.747C201.25 122.952 201.64 123.055 202.12 123.055C202.667 123.055 203.101 122.939 203.423 122.707C203.748 122.472 203.91 122.19 203.91 121.862C203.91 121.597 203.817 121.375 203.632 121.196C203.446 121.014 203.161 120.878 202.777 120.788L201.504 120.49C200.804 120.324 200.291 120.067 199.963 119.719C199.638 119.368 199.475 118.929 199.475 118.402C199.475 117.971 199.596 117.59 199.838 117.258C200.084 116.927 200.417 116.667 200.838 116.478C201.262 116.289 201.742 116.194 202.279 116.194C203.035 116.194 203.628 116.36 204.059 116.692C204.493 117.023 204.802 117.46 204.984 118.004ZM206.889 126.794V116.294H208.023V117.507H208.162C208.248 117.374 208.368 117.205 208.52 117C208.676 116.791 208.898 116.605 209.186 116.443C209.478 116.277 209.872 116.194 210.369 116.194C211.012 116.194 211.579 116.355 212.07 116.677C212.56 116.998 212.943 117.454 213.218 118.044C213.493 118.634 213.631 119.33 213.631 120.132C213.631 120.941 213.493 121.642 213.218 122.235C212.943 122.825 212.562 123.282 212.075 123.607C211.587 123.929 211.026 124.089 210.389 124.089C209.899 124.089 209.506 124.008 209.211 123.846C208.916 123.68 208.689 123.493 208.53 123.284C208.371 123.072 208.248 122.896 208.162 122.757H208.063V126.794H206.889ZM208.043 120.112C208.043 120.689 208.127 121.197 208.296 121.638C208.465 122.076 208.712 122.419 209.037 122.667C209.362 122.913 209.76 123.035 210.23 123.035C210.721 123.035 211.13 122.906 211.458 122.648C211.79 122.386 212.038 122.034 212.204 121.594C212.373 121.149 212.457 120.656 212.457 120.112C212.457 119.575 212.375 119.091 212.209 118.66C212.046 118.226 211.8 117.883 211.468 117.631C211.14 117.376 210.727 117.248 210.23 117.248C209.753 117.248 209.352 117.369 209.027 117.611C208.702 117.85 208.457 118.185 208.291 118.616C208.126 119.043 208.043 119.542 208.043 120.112ZM216.594 113.748V123.93H215.421V113.748H216.594ZM220.99 124.109C220.506 124.109 220.067 124.018 219.672 123.836C219.278 123.65 218.965 123.383 218.733 123.035C218.501 122.684 218.385 122.26 218.385 121.763C218.385 121.325 218.471 120.97 218.643 120.699C218.816 120.424 219.046 120.208 219.334 120.052C219.623 119.897 219.941 119.781 220.289 119.704C220.64 119.625 220.993 119.562 221.348 119.515C221.812 119.456 222.188 119.411 222.476 119.381C222.768 119.348 222.98 119.293 223.113 119.217C223.249 119.141 223.317 119.008 223.317 118.819V118.78C223.317 118.289 223.182 117.908 222.914 117.636C222.649 117.364 222.246 117.228 221.706 117.228C221.146 117.228 220.707 117.351 220.388 117.596C220.07 117.842 219.847 118.103 219.717 118.382L218.604 117.984C218.802 117.52 219.068 117.159 219.399 116.9C219.734 116.639 220.098 116.456 220.493 116.353C220.891 116.247 221.282 116.194 221.666 116.194C221.911 116.194 222.193 116.224 222.511 116.284C222.833 116.34 223.143 116.458 223.441 116.637C223.743 116.816 223.993 117.086 224.192 117.447C224.391 117.808 224.49 118.292 224.49 118.899V123.93H223.317V122.896H223.257C223.177 123.062 223.045 123.239 222.859 123.428C222.674 123.617 222.427 123.778 222.119 123.91C221.81 124.043 221.434 124.109 220.99 124.109ZM221.169 123.055C221.633 123.055 222.024 122.964 222.342 122.782C222.664 122.599 222.906 122.364 223.068 122.076C223.234 121.787 223.317 121.484 223.317 121.166V120.092C223.267 120.152 223.158 120.206 222.989 120.256C222.823 120.303 222.631 120.344 222.412 120.38C222.196 120.414 221.986 120.443 221.78 120.47C221.578 120.493 221.414 120.513 221.288 120.53C220.983 120.569 220.698 120.634 220.433 120.723C220.171 120.81 219.959 120.941 219.797 121.116C219.638 121.289 219.558 121.524 219.558 121.822C219.558 122.23 219.709 122.538 220.011 122.747C220.315 122.952 220.702 123.055 221.169 123.055ZM227.114 126.794C226.915 126.794 226.738 126.777 226.582 126.744C226.426 126.714 226.318 126.684 226.259 126.655L226.557 125.621C226.842 125.693 227.094 125.72 227.313 125.7C227.531 125.68 227.725 125.582 227.894 125.407C228.067 125.234 228.224 124.954 228.367 124.567L228.585 123.97L225.761 116.294H227.034L229.142 122.379H229.222L231.33 116.294H232.602L229.361 125.044C229.215 125.438 229.034 125.765 228.819 126.023C228.604 126.285 228.353 126.479 228.068 126.605C227.787 126.731 227.468 126.794 227.114 126.794ZM234.528 124.01C234.282 124.01 234.072 123.922 233.896 123.746C233.721 123.571 233.633 123.36 233.633 123.115C233.633 122.87 233.721 122.659 233.896 122.483C234.072 122.308 234.282 122.22 234.528 122.22C234.773 122.22 234.983 122.308 235.159 122.483C235.335 122.659 235.422 122.87 235.422 123.115C235.422 123.277 235.381 123.426 235.298 123.562C235.219 123.698 235.111 123.808 234.975 123.89C234.842 123.97 234.693 124.01 234.528 124.01Z" fill="#5F737F"/>
</svg>
